<?xml version="1.0" encoding="utf-8"?>
<!-- Generator: Adobe Illustrator 15.1.0, SVG Export Plug-In . SVG Version: 6.00 Build 0)  -->
<!DOCTYPE svg PUBLIC "-//W3C//DTD SVG 1.1//EN" "http://www.w3.org/Graphics/SVG/1.1/DTD/svg11.dtd">
<svg version="1.1" xmlns="http://www.w3.org/2000/svg" xmlns:xlink="http://www.w3.org/1999/xlink" x="0px" y="0px"
	 width="1689.658px" height="382px" viewBox="0 0 1689.658 382" enable-background="new 0 0 1689.658 382" xml:space="preserve">
<g id="Header">
	<polygon fill="#F8F8F9" points="93.877,163.713 187.796,109.132 93.877,54.561 93.877,163.713 	"/>
	<polygon fill="#E6E6E6" points="187.796,-0.015 93.877,54.567 187.796,109.137 187.796,-0.015 	"/>
	<polygon fill="#FFFFFF" points="93.877,272.865 187.796,218.283 93.877,163.713 93.877,272.865 	"/>
	<polygon fill="#E6E6E6" points="187.796,109.137 93.877,163.72 187.796,218.289 187.796,109.137 	"/>
	<polygon fill="#E6E6E6" points="93.877,382.016 187.796,327.437 93.877,272.865 93.877,382.016 	"/>
	<polygon fill="#F8F8F9" points="187.796,218.289 93.877,272.869 187.796,327.443 187.796,218.289 	"/>
	<polygon fill="#FFFFFF" points="187.796,382.037 187.796,327.443 93.877,382.022 93.902,382.037 	"/>
	<polygon fill="#FFFFFF" points="281.716,272.865 187.796,327.445 281.716,382.016 281.716,272.865 	"/>
	<polygon opacity="0.5" fill="#FFFFFF" points="281.672,382.037 281.716,382.012 187.796,327.44 187.796,382.037 	"/>
	<polygon opacity="0.5" fill="#FFFFFF" points="281.716,163.713 187.796,218.295 281.716,272.865 281.716,163.713 	"/>
	<polygon opacity="0.5" fill="#FFFFFF" points="187.796,327.44 281.716,272.859 187.796,218.287 187.796,327.44 	"/>
	<polygon opacity="0.5" fill="#FFFFFF" points="281.716,54.559 187.796,109.141 281.716,163.713 281.716,54.559 	"/>
	<polygon fill="#FFFFFF" points="187.796,218.287 281.716,163.707 187.796,109.135 187.796,218.287 	"/>
	<polygon opacity="0.5" fill="#FFFFFF" points="188.575,-0.463 187.796,-0.01 281.716,54.559 281.716,-0.463 	"/>
	<polygon fill="#FFFFFF" points="187.796,109.135 281.716,54.555 187.796,-0.015 187.796,109.135 	"/>
	<path opacity="0.5" fill="#FFFFFF" d="M0.04,109.132"/>
	<polyline opacity="0.5" fill="#FFFFFF" points="0.04,109.137 0.04,-0.015 0.04,-0.015 	"/>
	<path opacity="0.5" fill="#FFFFFF" d="M0.04,218.283"/>
	<polyline opacity="0.5" fill="#FFFFFF" points="0.04,218.289 0.04,109.137 0.04,109.137 	"/>
	<path opacity="0.5" fill="#FFFFFF" d="M0.04,327.437"/>
	<polyline opacity="0.5" fill="#FFFFFF" points="0.04,327.443 0.04,218.289 0.04,218.289 	"/>
	<path opacity="0.5" fill="#FFFFFF" d="M0.04,380.968c-0.203-18.431-0.203-35.431,0-53.524"/>
	<polygon fill="#F1F2F2" points="93.96,272.865 0.04,327.445 93.96,382.016 93.96,272.865 	"/>
	<polygon fill="#FFFFFF" points="93.916,382.037 93.96,382.012 0.04,327.44 0.04,382.037 	"/>
	<polygon fill="#F8F8F9" points="93.96,163.713 0.04,218.295 93.96,272.865 93.96,163.713 	"/>
	<polygon fill="#FFFFFF" points="0.04,327.44 93.96,272.859 0.04,218.287 0.04,327.44 	"/>
	<polygon fill="#FFFFFF" points="0.04,218.287 93.96,163.707 0.04,109.135 0.04,218.287 	"/>
	<polygon fill="#FFFFFF" points="0.04,109.135 93.96,54.555 0.04,-0.015 0.04,109.135 	"/>
	<polygon opacity="0.5" fill="#FFFFFF" points="281.716,-0.463 281.716,54.561 375.637,-0.021 374.877,-0.463 	"/>
	<polyline opacity="0.5" fill="#FFFFFF" points="281.717,382.021 281.717,382.021 375.637,327.439 	"/>
	<polygon opacity="0.5" fill="#FFFFFF" points="375.637,382.037 375.637,327.442 281.717,382.025 281.737,382.037 	"/>
	<path opacity="0.5" fill="#FFFFFF" d="M1033.538,381.371c14.979-8.705,29.956-17.409,44.935-26.114
		c15.425-8.964,30.849-17.927,46.272-26.891c0.531-0.309,1.062-0.618,1.595-0.927"/>
	<path opacity="0.5" fill="#FFFFFF" d="M1126.34,327.449c12.351,7.176,24.7,14.352,37.051,21.527
		c17.251,10.023,34.501,20.047,51.752,30.07c1.333,0.774,2.667,1.55,4.001,2.324"/>
	<polygon fill="#FFFFFF" points="281.716,163.713 375.637,109.132 281.716,54.561 281.716,163.713 	"/>
	<polygon opacity="0.5" fill="#FFFFFF" points="281.716,272.865 375.637,218.283 281.716,163.713 281.716,272.865 	"/>
	<polygon opacity="0.5" fill="#FFFFFF" points="375.637,218.289 281.716,272.869 375.637,327.443 375.637,218.289 	"/>
	<polygon opacity="0.5" fill="#FFFFFF" points="1407.938,381.787 1407.938,272.865 1314.019,327.445 1407.545,381.787 	"/>
	<polygon opacity="0.5" fill="#FFFFFF" points="1407.552,381.787 1314.019,327.44 1314.019,381.787 	"/>
	<polygon fill="#FFFFFF" points="1407.938,163.713 1314.019,218.295 1407.938,272.865 1407.938,163.713 	"/>
	<polygon opacity="0.5" fill="#FFFFFF" points="1314.019,327.44 1407.938,272.859 1314.019,218.287 1314.019,327.44 	"/>
	<polygon opacity="0.5" fill="#FFFFFF" points="1407.938,54.559 1314.019,109.141 1407.938,163.713 1407.938,54.559 	"/>
	<polygon opacity="0.5" fill="#FFFFFF" points="1314.226,-0.13 1314.019,-0.01 1407.938,54.559 1407.938,-0.13 	"/>
	<polygon opacity="0.5" fill="#FFFFFF" points="1407.938,-0.13 1407.938,54.561 1501.857,-0.021 1501.671,-0.13 	"/>
	<polygon opacity="0.5" fill="#FFFFFF" points="1407.938,163.713 1501.857,109.132 1407.938,54.561 1407.938,163.713 	"/>
	<polygon fill="#FFFFFF" points="1501.857,-0.015 1407.938,54.567 1501.857,109.137 1501.857,-0.015 	"/>
	<polygon opacity="0.5" fill="#FFFFFF" points="1407.938,272.865 1501.857,218.283 1407.938,163.713 1407.938,272.865 	"/>
	<polygon fill="#FFFFFF" points="1501.857,109.137 1407.938,163.72 1501.857,218.289 1501.857,109.137 	"/>
	<polygon fill="#FFFFFF" points="1408.332,381.787 1501.857,327.437 1407.938,272.865 1407.938,381.787 	"/>
	<polygon opacity="0.5" fill="#FFFFFF" points="1501.857,218.289 1407.938,272.869 1501.857,327.443 1501.857,218.289 	"/>
	<polygon opacity="0.5" fill="#FFFFFF" points="1501.857,381.787 1501.857,327.443 1408.344,381.787 	"/>
	<polygon fill="#E6E6E6" points="1595.777,381.787 1595.777,272.865 1501.857,327.445 1595.384,381.787 	"/>
	<polygon fill="#F8F8F9" points="1595.777,163.713 1501.857,218.295 1595.777,272.865 1595.777,163.713 	"/>
	<polygon fill="#FFFFFF" points="1501.857,327.44 1595.777,272.859 1501.857,218.287 1501.857,327.44 	"/>
	<polygon fill="#FFFFFF" points="1595.777,54.559 1501.857,109.141 1595.777,163.713 1595.777,54.559 	"/>
	<polygon fill="#E6E6E6" points="1501.857,218.287 1595.777,163.707 1501.857,109.135 1501.857,218.287 	"/>
	<polygon fill="#E6E6E6" points="1501.857,109.135 1595.777,54.555 1501.857,-0.015 1501.857,109.135 	"/>
	<polygon fill="#F8F8F9" points="1595.777,163.713 1689.698,109.132 1595.777,54.561 1595.777,163.713 	"/>
	<polygon fill="#FFFFFF" points="1595.777,272.865 1689.698,218.283 1595.777,163.713 1595.777,272.865 	"/>
	<polygon fill="#F1F2F2" points="1689.698,109.137 1595.777,163.72 1689.698,218.289 1689.698,109.137 	"/>
	<polygon fill="#FFFFFF" points="1596.171,381.787 1689.698,327.437 1595.777,272.865 1595.777,381.787 	"/>
	<polygon fill="#F8F8F9" points="1689.698,218.289 1595.777,272.869 1689.698,327.443 1689.698,218.289 	"/>
</g>
<g id="lijnen">
	<path fill="#FFFFFF" d="M187.681-0.463h-1.99l1.07,0.622L94.337,53.872V-0.463h-1v55.204c0,0.179,0.096,0.344,0.251,0.434
		c0.077,0.044,0.163,0.066,0.249,0.066c0.087,0,0.174-0.022,0.251-0.067l93.919-54.582c0.154-0.09,0.249-0.255,0.249-0.433
		s-0.095-0.343-0.249-0.433L187.681-0.463z"/>
	<path fill="#FFFFFF" d="M93.837,164.394c-0.086,0-0.172-0.022-0.249-0.066c-0.155-0.09-0.251-0.255-0.251-0.434V54.741
		c0-0.179,0.096-0.344,0.251-0.434c0.156-0.088,0.348-0.088,0.5,0.001l93.919,54.571c0.154,0.09,0.249,0.255,0.249,0.433
		s-0.095,0.343-0.249,0.433l-93.919,54.581C94.011,164.371,93.924,164.394,93.837,164.394z M94.337,55.61v107.414l92.424-53.712
		L94.337,55.61z"/>
	<path fill="#FFFFFF" d="M187.756,109.817c-0.087,0-0.174-0.022-0.251-0.067L93.586,55.181c-0.154-0.09-0.249-0.255-0.249-0.433
		s0.095-0.343,0.249-0.433l93.919-54.582c0.153-0.089,0.345-0.09,0.5-0.001c0.155,0.09,0.251,0.255,0.251,0.434v109.151
		c0,0.179-0.096,0.344-0.251,0.434C187.928,109.795,187.842,109.817,187.756,109.817z M94.832,54.748l92.424,53.7V1.035
		L94.832,54.748z"/>
	<path fill="#FFFFFF" d="M93.837,273.546c-0.086,0-0.172-0.022-0.249-0.066c-0.155-0.09-0.251-0.255-0.251-0.434V163.894
		c0-0.179,0.096-0.344,0.251-0.434c0.156-0.088,0.348-0.088,0.5,0.001l93.919,54.57c0.154,0.09,0.249,0.255,0.249,0.433
		s-0.095,0.343-0.249,0.433l-93.919,54.582C94.011,273.523,93.924,273.546,93.837,273.546z M94.337,164.763v107.414l92.424-53.713
		L94.337,164.763z"/>
	<path fill="#FFFFFF" d="M187.756,218.97c-0.087,0-0.174-0.022-0.251-0.067l-93.919-54.569c-0.154-0.09-0.249-0.255-0.249-0.433
		s0.095-0.343,0.249-0.433l93.919-54.583c0.153-0.09,0.345-0.089,0.5-0.001c0.155,0.09,0.251,0.255,0.251,0.434V218.47
		c0,0.179-0.096,0.344-0.251,0.434C187.928,218.947,187.842,218.97,187.756,218.97z M94.832,163.9l92.424,53.7V110.187L94.832,163.9
		z"/>
	<path fill="#FFFFFF" d="M95.106,382.037l92.9-53.987c0.154-0.09,0.249-0.255,0.249-0.433s-0.095-0.343-0.249-0.433l-93.919-54.571
		c-0.152-0.089-0.344-0.089-0.5-0.001c-0.155,0.09-0.251,0.255-0.251,0.434v108.991H95.106z M94.337,273.915l92.424,53.702
		l-92.424,53.71V273.915z"/>
	<path fill="#FFFFFF" d="M187.756,328.124c-0.087,0-0.174-0.022-0.251-0.067l-93.919-54.574c-0.154-0.09-0.249-0.255-0.249-0.433
		s0.095-0.343,0.249-0.433l93.919-54.58c0.153-0.089,0.345-0.09,0.5-0.001c0.155,0.09,0.251,0.255,0.251,0.434v109.154
		c0,0.179-0.096,0.344-0.251,0.434C187.928,328.102,187.842,328.124,187.756,328.124z M94.832,273.05l92.424,53.705V219.339
		L94.832,273.05z"/>
	<path fill="#FFFFFF" d="M95.118,382.037l92.138-53.544v53.544h1v-54.413c0-0.179-0.096-0.344-0.251-0.434
		c-0.155-0.088-0.347-0.089-0.5,0.001l-93.919,54.579c-0.103,0.06-0.165,0.158-0.204,0.267H95.118z"/>
	<path fill="#FFFFFF" d="M280.406,382.037h1.77V273.046c0-0.179-0.096-0.344-0.251-0.434c-0.155-0.088-0.347-0.089-0.5,0.001
		l-93.92,54.58c-0.154,0.09-0.249,0.255-0.249,0.433s0.095,0.343,0.249,0.433L280.406,382.037z M281.176,273.915v107.412
		l-92.425-53.701L281.176,273.915z"/>
	<path fill="#FFFFFF" d="M188.256,382.037V328.49l92.157,53.547h1.721c-0.038-0.113-0.101-0.216-0.207-0.277l-93.92-54.571
		c-0.153-0.089-0.345-0.089-0.5-0.001c-0.155,0.09-0.251,0.255-0.251,0.434v54.416H188.256z"/>
	<path fill="#FFFFFF" d="M281.676,273.546c-0.087,0-0.174-0.022-0.251-0.067l-93.92-54.57c-0.154-0.09-0.249-0.255-0.249-0.433
		s0.095-0.343,0.249-0.433l93.92-54.582c0.153-0.089,0.345-0.09,0.5-0.001c0.155,0.09,0.251,0.255,0.251,0.434v109.152
		c0,0.179-0.096,0.344-0.251,0.434C281.848,273.523,281.762,273.546,281.676,273.546z M188.751,218.476l92.425,53.701V164.763
		L188.751,218.476z"/>
	<path fill="#FFFFFF" d="M187.756,328.121c-0.086,0-0.172-0.022-0.249-0.066c-0.155-0.09-0.251-0.255-0.251-0.434V218.468
		c0-0.179,0.096-0.344,0.251-0.434c0.155-0.088,0.347-0.088,0.5,0.001l93.92,54.572c0.154,0.09,0.249,0.255,0.249,0.433
		s-0.095,0.343-0.249,0.433l-93.92,54.581C187.93,328.099,187.843,328.121,187.756,328.121z M188.256,219.337v107.415l92.425-53.712
		L188.256,219.337z"/>
	<path fill="#FFFFFF" d="M281.676,164.394c-0.087,0-0.174-0.022-0.251-0.067l-93.92-54.572c-0.154-0.09-0.249-0.255-0.249-0.433
		s0.095-0.343,0.249-0.433l93.92-54.582c0.153-0.09,0.345-0.089,0.5-0.001c0.155,0.09,0.251,0.255,0.251,0.434v109.154
		c0,0.179-0.096,0.344-0.251,0.434C281.848,164.371,281.762,164.394,281.676,164.394z M188.751,109.321l92.425,53.703V55.608
		L188.751,109.321z"/>
	<path fill="#FFFFFF" d="M187.756,218.968c-0.086,0-0.172-0.022-0.249-0.066c-0.155-0.09-0.251-0.255-0.251-0.434V109.315
		c0-0.179,0.096-0.344,0.251-0.434c0.155-0.088,0.347-0.088,0.5,0.001l93.92,54.572c0.154,0.09,0.249,0.255,0.249,0.433
		s-0.095,0.343-0.249,0.433l-93.92,54.58C187.93,218.945,187.843,218.968,187.756,218.968z M188.256,110.185v107.414l92.425-53.711
		L188.256,110.185z"/>
	<path fill="#FFFFFF" d="M281.176-0.463V53.87L188.751,0.171l1.091-0.634h-1.991l-0.346,0.201c-0.154,0.09-0.249,0.255-0.249,0.433
		s0.095,0.343,0.249,0.433l93.92,54.568c0.077,0.045,0.164,0.067,0.251,0.067c0.086,0,0.172-0.022,0.249-0.066
		c0.155-0.09,0.251-0.255,0.251-0.434V-0.463H281.176z"/>
	<path fill="#FFFFFF" d="M187.756,109.815c-0.086,0-0.172-0.022-0.249-0.066c-0.155-0.09-0.251-0.255-0.251-0.434V0.166
		c0-0.179,0.096-0.344,0.251-0.434c0.155-0.088,0.347-0.088,0.5,0.001l93.92,54.569c0.154,0.09,0.249,0.255,0.249,0.433
		s-0.095,0.343-0.249,0.433l-93.92,54.58C187.93,109.793,187.843,109.815,187.756,109.815z M188.256,1.035v107.411l92.425-53.711
		L188.256,1.035z"/>
	<path fill="none" stroke="#FFFFFF" stroke-linecap="round" stroke-linejoin="round" stroke-miterlimit="10" d="M0,109.312"/>
	<path fill="#FFFFFF" d="M-0.421-0.088C-0.467-0.013-0.5,0.071-0.5,0.166v109.151c0,0.276,0.224,0.5,0.5,0.5s0.5-0.224,0.5-0.5
		V0.166c0-0.095-0.033-0.179-0.079-0.254H-0.421z"/>
	<path fill="none" stroke="#FFFFFF" stroke-linecap="round" stroke-linejoin="round" stroke-miterlimit="10" d="M0,218.464"/>
	<path fill="#FFFFFF" d="M0,218.97c-0.276,0-0.5-0.224-0.5-0.5V109.317c0-0.276,0.224-0.5,0.5-0.5s0.5,0.224,0.5,0.5V218.47
		C0.5,218.746,0.276,218.97,0,218.97z"/>
	<path fill="none" stroke="#FFFFFF" stroke-linecap="round" stroke-linejoin="round" stroke-miterlimit="10" d="M0,327.617"/>
	<path fill="#FFFFFF" d="M0,328.124c-0.276,0-0.5-0.224-0.5-0.5V218.47c0-0.276,0.224-0.5,0.5-0.5s0.5,0.224,0.5,0.5v109.154
		C0.5,327.9,0.276,328.124,0,328.124z"/>
	<path fill="#FFFFFF" d="M0.5,382.037v-54.413c0-0.276-0.224-0.5-0.5-0.5s-0.5,0.224-0.5,0.5v54.413H0.5z"/>
	<path fill="#FFFFFF" d="M92.65,382.037h1.77V273.046c0-0.179-0.096-0.344-0.251-0.434c-0.155-0.088-0.347-0.089-0.5,0.001
		l-93.92,54.58c-0.154,0.09-0.249,0.255-0.249,0.433s0.095,0.343,0.249,0.433L92.65,382.037z M93.42,273.915v107.412L0.995,327.626
		L93.42,273.915z"/>
	<path fill="#FFFFFF" d="M0.5,382.037V328.49l92.157,53.547h1.721c-0.038-0.113-0.101-0.216-0.207-0.277l-93.92-54.571
		c-0.152-0.089-0.344-0.089-0.5-0.001c-0.155,0.09-0.251,0.255-0.251,0.434v54.416H0.5z"/>
	<path fill="#FFFFFF" d="M93.92,273.546c-0.087,0-0.174-0.022-0.251-0.067l-93.92-54.57c-0.154-0.09-0.249-0.255-0.249-0.433
		s0.095-0.343,0.249-0.433l93.92-54.582c0.153-0.089,0.345-0.09,0.5-0.001c0.155,0.09,0.251,0.255,0.251,0.434v109.152
		c0,0.179-0.096,0.344-0.251,0.434C94.092,273.523,94.006,273.546,93.92,273.546z M0.995,218.476l92.425,53.701V164.763
		L0.995,218.476z"/>
	<path fill="#FFFFFF" d="M0,328.121c-0.086,0-0.172-0.022-0.249-0.066c-0.155-0.09-0.251-0.255-0.251-0.434V218.468
		c0-0.179,0.096-0.344,0.251-0.434c0.156-0.088,0.348-0.088,0.5,0.001l93.92,54.572c0.154,0.09,0.249,0.255,0.249,0.433
		s-0.095,0.343-0.249,0.433l-93.92,54.581C0.174,328.099,0.087,328.121,0,328.121z M0.5,219.337v107.415l92.425-53.712L0.5,219.337z
		"/>
	<path fill="#FFFFFF" d="M93.92,164.394c-0.087,0-0.174-0.022-0.251-0.067l-93.92-54.572c-0.154-0.09-0.249-0.255-0.249-0.433
		s0.095-0.343,0.249-0.433l93.92-54.582c0.153-0.09,0.345-0.089,0.5-0.001c0.155,0.09,0.251,0.255,0.251,0.434v109.154
		c0,0.179-0.096,0.344-0.251,0.434C94.092,164.371,94.006,164.394,93.92,164.394z M0.995,109.321l92.425,53.703V55.608
		L0.995,109.321z"/>
	<path fill="#FFFFFF" d="M0,218.968c-0.086,0-0.172-0.022-0.249-0.066c-0.155-0.09-0.251-0.255-0.251-0.434V109.315
		c0-0.179,0.096-0.344,0.251-0.434c0.156-0.088,0.348-0.088,0.5,0.001l93.92,54.572c0.154,0.09,0.249,0.255,0.249,0.433
		s-0.095,0.343-0.249,0.433L0.251,218.9C0.174,218.945,0.087,218.968,0,218.968z M0.5,110.185v107.414l92.425-53.711L0.5,110.185z"
		/>
	<path fill="#FFFFFF" d="M93.42-0.463V53.87L0.995,0.171L1.44-0.088h-1.864C-0.472-0.011-0.5,0.077-0.5,0.171
		c0,0.178,0.095,0.343,0.249,0.433l93.92,54.568c0.077,0.045,0.164,0.067,0.251,0.067c0.086,0,0.172-0.022,0.249-0.066
		c0.155-0.09,0.251-0.255,0.251-0.434V-0.463H93.42z"/>
	<path fill="#FFFFFF" d="M94.171,54.303L0.559-0.088h-0.987C-0.474-0.012-0.5,0.075-0.5,0.166v109.149
		c0,0.179,0.096,0.344,0.251,0.434c0.077,0.044,0.163,0.066,0.249,0.066c0.087,0,0.174-0.022,0.251-0.067l93.92-54.58
		c0.154-0.09,0.249-0.255,0.249-0.433S94.325,54.393,94.171,54.303z M0.5,108.446V1.035l92.425,53.7L0.5,108.446z"/>
	<path fill="#FFFFFF" d="M375.521-0.463h-1.99l1.07,0.622l-92.426,53.713V-0.463h-1v55.204c0,0.179,0.096,0.344,0.251,0.434
		c0.077,0.044,0.163,0.066,0.249,0.066c0.087,0,0.174-0.022,0.251-0.067l93.921-54.582c0.154-0.09,0.249-0.255,0.249-0.433
		s-0.095-0.343-0.249-0.433L375.521-0.463z"/>
	<path fill="#FFFFFF" d="M282.954,382.037l92.894-53.984c0.239-0.139,0.32-0.445,0.182-0.684c-0.14-0.241-0.447-0.32-0.684-0.182
		l-93.92,54.581c-0.107,0.062-0.177,0.16-0.215,0.269H282.954z"/>
	<path fill="#FFFFFF" d="M282.963,382.037l92.134-53.545v53.545h1v-54.414c0-0.179-0.096-0.344-0.251-0.434
		c-0.155-0.088-0.347-0.089-0.5,0.001l-93.92,54.583c-0.103,0.06-0.164,0.156-0.204,0.264H282.963z"/>
	<path fill="#FFFFFF" d="M1034.088,381.787l92.463-53.734c0.239-0.139,0.32-0.445,0.182-0.684c-0.14-0.241-0.447-0.32-0.684-0.182
		l-93.92,54.581c-0.009,0.005-0.013,0.013-0.021,0.019H1034.088z"/>
	<path fill="#FFFFFF" d="M1034.096,381.787l91.704-53.295v53.295h1v-54.164c0-0.179-0.096-0.344-0.251-0.434
		c-0.155-0.088-0.347-0.089-0.5,0.001l-93.92,54.583c-0.006,0.004-0.008,0.01-0.014,0.014H1034.096z"/>
	<path fill="#FFFFFF" d="M1126.8,381.787v-53.295l91.725,53.295h1.973c-0.01-0.007-0.015-0.02-0.025-0.025l-93.921-54.571
		c-0.152-0.089-0.344-0.089-0.5-0.001c-0.155,0.09-0.251,0.255-0.251,0.434v54.164H1126.8z"/>
	<path fill="#FFFFFF" d="M1126.049,328.062l92.464,53.725h1.98c-0.009-0.006-0.014-0.014-0.021-0.019l-93.921-54.571
		c-0.237-0.139-0.545-0.06-0.684,0.182C1125.729,327.617,1125.81,327.924,1126.049,328.062z"/>
	<path fill="#FFFFFF" d="M281.676,164.394c-0.086,0-0.172-0.022-0.249-0.066c-0.155-0.09-0.251-0.255-0.251-0.434V54.741
		c0-0.179,0.096-0.344,0.251-0.434c0.155-0.088,0.347-0.088,0.5,0.001l93.921,54.571c0.154,0.09,0.249,0.255,0.249,0.433
		s-0.095,0.343-0.249,0.433l-93.921,54.581C281.85,164.371,281.763,164.394,281.676,164.394z M282.176,55.61v107.414l92.426-53.712
		L282.176,55.61z"/>
	<path fill="#FFFFFF" d="M375.597,109.817c-0.087,0-0.174-0.022-0.251-0.067l-93.921-54.569c-0.154-0.09-0.249-0.255-0.249-0.433
		s0.095-0.343,0.249-0.433l93.921-54.582c0.153-0.089,0.345-0.09,0.5-0.001c0.155,0.09,0.251,0.255,0.251,0.434v109.151
		c0,0.179-0.096,0.344-0.251,0.434C375.769,109.795,375.683,109.817,375.597,109.817z M282.671,54.748l92.426,53.7V1.035
		L282.671,54.748z"/>
	<path fill="#FFFFFF" d="M281.676,273.546c-0.086,0-0.172-0.022-0.249-0.066c-0.155-0.09-0.251-0.255-0.251-0.434V163.894
		c0-0.179,0.096-0.344,0.251-0.434c0.155-0.088,0.347-0.088,0.5,0.001l93.921,54.57c0.154,0.09,0.249,0.255,0.249,0.433
		s-0.095,0.343-0.249,0.433l-93.921,54.582C281.85,273.523,281.763,273.546,281.676,273.546z M282.176,164.763v107.414
		l92.426-53.713L282.176,164.763z"/>
	<path fill="#FFFFFF" d="M375.597,218.97c-0.087,0-0.174-0.022-0.251-0.067l-93.921-54.569c-0.154-0.09-0.249-0.255-0.249-0.433
		s0.095-0.343,0.249-0.433l93.921-54.583c0.153-0.09,0.345-0.089,0.5-0.001c0.155,0.09,0.251,0.255,0.251,0.434V218.47
		c0,0.179-0.096,0.344-0.251,0.434C375.769,218.947,375.683,218.97,375.597,218.97z M282.671,163.9l92.426,53.7V110.187
		L282.671,163.9z"/>
	<path fill="#FFFFFF" d="M282.945,382.037l92.902-53.987c0.154-0.09,0.249-0.255,0.249-0.433s-0.095-0.343-0.249-0.433
		l-93.921-54.571c-0.153-0.089-0.345-0.089-0.5-0.001c-0.155,0.09-0.251,0.255-0.251,0.434v108.991H282.945z M282.176,273.915
		l92.426,53.702l-92.426,53.71V273.915z"/>
	<path fill="#FFFFFF" d="M375.597,328.124c-0.087,0-0.174-0.022-0.251-0.067l-93.921-54.574c-0.154-0.09-0.249-0.255-0.249-0.433
		s0.095-0.343,0.249-0.433l93.921-54.58c0.153-0.089,0.345-0.09,0.5-0.001c0.155,0.09,0.251,0.255,0.251,0.434v109.154
		c0,0.179-0.096,0.344-0.251,0.434C375.769,328.102,375.683,328.124,375.597,328.124z M282.671,273.05l92.426,53.705V219.339
		L282.671,273.05z"/>
	<path fill="#FFFFFF" d="M1218.522,381.787h2.2V273.046c0-0.179-0.096-0.344-0.251-0.434c-0.154-0.088-0.346-0.089-0.5,0.001
		l-93.922,54.58c-0.154,0.09-0.249,0.255-0.249,0.433s0.095,0.343,0.249,0.433L1218.522,381.787z M1219.723,273.915v107.412
		l-92.427-53.701L1219.723,273.915z"/>
	<path fill="#FFFFFF" d="M1219.723-0.13v54l-92.427-53.699l0.518-0.301h-1.895c-0.068,0.087-0.118,0.187-0.118,0.301
		c0,0.178,0.095,0.343,0.249,0.433l93.922,54.568c0.077,0.045,0.164,0.067,0.251,0.067c0.086,0,0.172-0.022,0.249-0.066
		c0.155-0.09,0.251-0.255,0.251-0.434V-0.13H1219.723z"/>
	<path fill="#FFFFFF" d="M1312.485-0.13l0.498,0.289l-92.424,53.713V-0.13h-1v54.871c0,0.179,0.096,0.344,0.251,0.434
		c0.077,0.044,0.163,0.066,0.249,0.066c0.087,0,0.174-0.022,0.251-0.067l93.919-54.582c0.154-0.09,0.249-0.255,0.249-0.433
		c0-0.108-0.044-0.204-0.106-0.289H1312.485z"/>
	<path fill="#FFFFFF" d="M1313.979,109.817c-0.087,0-0.174-0.022-0.251-0.067l-93.919-54.569c-0.154-0.09-0.249-0.255-0.249-0.433
		s0.095-0.343,0.249-0.433l93.919-54.582c0.153-0.089,0.345-0.09,0.5-0.001c0.155,0.09,0.251,0.255,0.251,0.434v109.151
		c0,0.179-0.096,0.344-0.251,0.434C1314.15,109.795,1314.064,109.817,1313.979,109.817z M1221.055,54.748l92.424,53.7V1.035
		L1221.055,54.748z"/>
	<path fill="#FFFFFF" d="M1221.759,381.787l92.471-53.737c0.154-0.09,0.249-0.255,0.249-0.433s-0.095-0.343-0.249-0.433
		l-93.919-54.571c-0.153-0.089-0.345-0.089-0.5-0.001c-0.155,0.09-0.251,0.255-0.251,0.434v108.741H1221.759z M1220.56,273.915
		l92.424,53.702l-92.424,53.71V273.915z"/>
	<path fill="#FFFFFF" d="M1313.979,328.124c-0.087,0-0.174-0.022-0.251-0.067l-93.919-54.574c-0.154-0.09-0.249-0.255-0.249-0.433
		s0.095-0.343,0.249-0.433l93.919-54.58c0.153-0.089,0.345-0.09,0.5-0.001c0.155,0.09,0.251,0.255,0.251,0.434v109.154
		c0,0.179-0.096,0.344-0.251,0.434C1314.15,328.102,1314.064,328.124,1313.979,328.124z M1221.055,273.05l92.424,53.705V219.339
		L1221.055,273.05z"/>
	<path fill="#FFFFFF" d="M1221.771,381.787l91.708-53.294v53.294h1v-54.163c0-0.179-0.096-0.344-0.251-0.434
		c-0.155-0.088-0.347-0.089-0.5,0.001l-93.919,54.579c-0.007,0.004-0.01,0.013-0.017,0.017H1221.771z"/>
	<path fill="#FFFFFF" d="M1408.398,381.787V273.046c0-0.179-0.096-0.344-0.251-0.434c-0.155-0.088-0.347-0.089-0.5,0.001
		l-93.92,54.58c-0.154,0.09-0.249,0.255-0.249,0.433s0.095,0.343,0.249,0.433l92.471,53.729H1408.398z M1407.398,273.915v107.412
		l-92.425-53.701L1407.398,273.915z"/>
	<path fill="#FFFFFF" d="M1314.479,381.787V328.49l91.728,53.297h1.971c-0.011-0.008-0.016-0.021-0.027-0.027l-93.92-54.571
		c-0.152-0.089-0.344-0.089-0.5-0.001c-0.155,0.09-0.251,0.255-0.251,0.434v54.166H1314.479z"/>
	<path fill="#FFFFFF" d="M1597.45,381.787l91.708-53.294v53.465c0.336,0.05,0.671,0.102,1,0.175v-54.509
		c0-0.179-0.096-0.344-0.251-0.434c-0.155-0.088-0.347-0.089-0.5,0.001l-93.919,54.579c-0.007,0.004-0.01,0.013-0.017,0.017H1597.45
		z"/>
	<path fill="#FFFFFF" d="M1407.898,273.546c-0.087,0-0.174-0.022-0.251-0.067l-93.92-54.57c-0.154-0.09-0.249-0.255-0.249-0.433
		s0.095-0.343,0.249-0.433l93.92-54.582c0.153-0.089,0.345-0.09,0.5-0.001c0.155,0.09,0.251,0.255,0.251,0.434v109.152
		c0,0.179-0.096,0.344-0.251,0.434C1408.07,273.523,1407.984,273.546,1407.898,273.546z M1314.974,218.476l92.425,53.701V164.763
		L1314.974,218.476z"/>
	<path fill="#FFFFFF" d="M1313.979,328.121c-0.086,0-0.172-0.022-0.249-0.066c-0.155-0.09-0.251-0.255-0.251-0.434V218.468
		c0-0.179,0.096-0.344,0.251-0.434c0.156-0.088,0.348-0.088,0.5,0.001l93.92,54.572c0.154,0.09,0.249,0.255,0.249,0.433
		s-0.095,0.343-0.249,0.433l-93.92,54.581C1314.152,328.099,1314.065,328.121,1313.979,328.121z M1314.479,219.337v107.415
		l92.425-53.712L1314.479,219.337z"/>
	<path fill="#FFFFFF" d="M1407.898,164.394c-0.087,0-0.174-0.022-0.251-0.067l-93.92-54.572c-0.154-0.09-0.249-0.255-0.249-0.433
		s0.095-0.343,0.249-0.433l93.92-54.582c0.153-0.09,0.345-0.089,0.5-0.001c0.155,0.09,0.251,0.255,0.251,0.434v109.154
		c0,0.179-0.096,0.344-0.251,0.434C1408.07,164.371,1407.984,164.394,1407.898,164.394z M1314.974,109.321l92.425,53.703V55.608
		L1314.974,109.321z"/>
	<path fill="#FFFFFF" d="M1313.979,218.968c-0.086,0-0.172-0.022-0.249-0.066c-0.155-0.09-0.251-0.255-0.251-0.434V109.315
		c0-0.179,0.096-0.344,0.251-0.434c0.156-0.088,0.348-0.088,0.5,0.001l93.92,54.572c0.154,0.09,0.249,0.255,0.249,0.433
		s-0.095,0.343-0.249,0.433l-93.92,54.58C1314.152,218.945,1314.065,218.968,1313.979,218.968z M1314.479,110.185v107.414
		l92.425-53.711L1314.479,110.185z"/>
	<path fill="#FFFFFF" d="M1407.398-0.13v54l-92.425-53.699l0.518-0.301h-1.895c-0.068,0.087-0.118,0.187-0.118,0.301
		c0,0.178,0.095,0.343,0.249,0.433l93.92,54.568c0.077,0.045,0.164,0.067,0.251,0.067c0.086,0,0.172-0.022,0.249-0.066
		c0.155-0.09,0.251-0.255,0.251-0.434V-0.13H1407.398z"/>
	<path fill="#FFFFFF" d="M1313.979,109.815c-0.086,0-0.172-0.022-0.249-0.066c-0.155-0.09-0.251-0.255-0.251-0.434V0.166
		c0-0.179,0.096-0.344,0.251-0.434c0.156-0.088,0.348-0.088,0.5,0.001l93.92,54.569c0.154,0.09,0.249,0.255,0.249,0.433
		s-0.095,0.343-0.249,0.433l-93.92,54.58C1314.152,109.793,1314.065,109.815,1313.979,109.815z M1314.479,1.035v107.411
		l92.425-53.711L1314.479,1.035z"/>
	<path fill="#FFFFFF" d="M1500.325-0.13l0.497,0.289l-92.424,53.713V-0.13h-1v54.871c0,0.179,0.096,0.344,0.251,0.434
		c0.077,0.044,0.163,0.066,0.249,0.066c0.087,0,0.174-0.022,0.251-0.067l93.919-54.582c0.154-0.09,0.249-0.255,0.249-0.433
		c0-0.108-0.044-0.204-0.106-0.289H1500.325z"/>
	<path fill="#FFFFFF" d="M1407.898,164.394c-0.086,0-0.172-0.022-0.249-0.066c-0.155-0.09-0.251-0.255-0.251-0.434V54.741
		c0-0.179,0.096-0.344,0.251-0.434c0.156-0.088,0.348-0.088,0.5,0.001l93.919,54.571c0.154,0.09,0.249,0.255,0.249,0.433
		s-0.095,0.343-0.249,0.433l-93.919,54.581C1408.072,164.371,1407.985,164.394,1407.898,164.394z M1408.398,55.61v107.414
		l92.424-53.712L1408.398,55.61z"/>
	<path fill="#FFFFFF" d="M1501.817,109.817c-0.087,0-0.174-0.022-0.251-0.067l-93.919-54.569c-0.154-0.09-0.249-0.255-0.249-0.433
		s0.095-0.343,0.249-0.433l93.919-54.582c0.153-0.089,0.345-0.09,0.5-0.001c0.155,0.09,0.251,0.255,0.251,0.434v109.151
		c0,0.179-0.096,0.344-0.251,0.434C1501.989,109.795,1501.903,109.817,1501.817,109.817z M1408.894,54.748l92.424,53.7V1.035
		L1408.894,54.748z"/>
	<path fill="#FFFFFF" d="M1407.898,273.546c-0.086,0-0.172-0.022-0.249-0.066c-0.155-0.09-0.251-0.255-0.251-0.434V163.894
		c0-0.179,0.096-0.344,0.251-0.434c0.156-0.088,0.348-0.088,0.5,0.001l93.919,54.57c0.154,0.09,0.249,0.255,0.249,0.433
		s-0.095,0.343-0.249,0.433l-93.919,54.582C1408.072,273.523,1407.985,273.546,1407.898,273.546z M1408.398,164.763v107.414
		l92.424-53.713L1408.398,164.763z"/>
	<path fill="#FFFFFF" d="M1501.817,218.97c-0.087,0-0.174-0.022-0.251-0.067l-93.919-54.569c-0.154-0.09-0.249-0.255-0.249-0.433
		s0.095-0.343,0.249-0.433l93.919-54.583c0.153-0.09,0.345-0.089,0.5-0.001c0.155,0.09,0.251,0.255,0.251,0.434V218.47
		c0,0.179-0.096,0.344-0.251,0.434C1501.989,218.947,1501.903,218.97,1501.817,218.97z M1408.894,163.9l92.424,53.7V110.187
		L1408.894,163.9z"/>
	<path fill="#FFFFFF" d="M1409.598,381.787l92.471-53.737c0.154-0.09,0.249-0.255,0.249-0.433s-0.095-0.343-0.249-0.433
		l-93.919-54.571c-0.152-0.089-0.344-0.089-0.5-0.001c-0.155,0.09-0.251,0.255-0.251,0.434v108.741H1409.598z M1408.398,273.915
		l92.424,53.702l-92.424,53.71V273.915z"/>
	<path fill="#FFFFFF" d="M1501.817,328.124c-0.087,0-0.174-0.022-0.251-0.067l-93.919-54.574c-0.154-0.09-0.249-0.255-0.249-0.433
		s0.095-0.343,0.249-0.433l93.919-54.58c0.153-0.089,0.345-0.09,0.5-0.001c0.155,0.09,0.251,0.255,0.251,0.434v109.154
		c0,0.179-0.096,0.344-0.251,0.434C1501.989,328.102,1501.903,328.124,1501.817,328.124z M1408.894,273.05l92.424,53.705V219.339
		L1408.894,273.05z"/>
	<path fill="#FFFFFF" d="M1409.609,381.787l91.708-53.294v53.294h1v-54.163c0-0.179-0.096-0.344-0.251-0.434
		c-0.155-0.088-0.347-0.089-0.5,0.001l-93.919,54.579c-0.007,0.004-0.01,0.013-0.017,0.017H1409.609z"/>
	<path fill="#FFFFFF" d="M1594.038,381.787h2.199V273.046c0-0.179-0.096-0.344-0.251-0.434c-0.155-0.088-0.347-0.089-0.5,0.001
		l-93.92,54.58c-0.154,0.09-0.249,0.255-0.249,0.433s0.095,0.343,0.249,0.433L1594.038,381.787z M1595.237,273.915v107.412
		l-92.425-53.701L1595.237,273.915z"/>
	<path fill="#FFFFFF" d="M1502.317,381.787V328.49l91.728,53.297h1.971c-0.011-0.008-0.016-0.021-0.027-0.027l-93.92-54.571
		c-0.153-0.089-0.345-0.089-0.5-0.001c-0.155,0.09-0.251,0.255-0.251,0.434v54.166H1502.317z"/>
	<path fill="#FFFFFF" d="M1595.737,273.546c-0.087,0-0.174-0.022-0.251-0.067l-93.92-54.57c-0.154-0.09-0.249-0.255-0.249-0.433
		s0.095-0.343,0.249-0.433l93.92-54.582c0.153-0.089,0.345-0.09,0.5-0.001c0.155,0.09,0.251,0.255,0.251,0.434v109.152
		c0,0.179-0.096,0.344-0.251,0.434C1595.909,273.523,1595.823,273.546,1595.737,273.546z M1502.812,218.476l92.425,53.701V164.763
		L1502.812,218.476z"/>
	<path fill="#FFFFFF" d="M1501.817,328.121c-0.086,0-0.172-0.022-0.249-0.066c-0.155-0.09-0.251-0.255-0.251-0.434V218.468
		c0-0.179,0.096-0.344,0.251-0.434c0.155-0.088,0.347-0.088,0.5,0.001l93.92,54.572c0.154,0.09,0.249,0.255,0.249,0.433
		s-0.095,0.343-0.249,0.433l-93.92,54.581C1501.991,328.099,1501.904,328.121,1501.817,328.121z M1502.317,219.337v107.415
		l92.425-53.712L1502.317,219.337z"/>
	<path fill="#FFFFFF" d="M1595.737,164.394c-0.087,0-0.174-0.022-0.251-0.067l-93.92-54.572c-0.154-0.09-0.249-0.255-0.249-0.433
		s0.095-0.343,0.249-0.433l93.92-54.582c0.153-0.09,0.345-0.089,0.5-0.001c0.155,0.09,0.251,0.255,0.251,0.434v109.154
		c0,0.179-0.096,0.344-0.251,0.434C1595.909,164.371,1595.823,164.394,1595.737,164.394z M1502.812,109.321l92.425,53.703V55.608
		L1502.812,109.321z"/>
	<path fill="#FFFFFF" d="M1501.817,218.968c-0.086,0-0.172-0.022-0.249-0.066c-0.155-0.09-0.251-0.255-0.251-0.434V109.315
		c0-0.179,0.096-0.344,0.251-0.434c0.155-0.088,0.347-0.088,0.5,0.001l93.92,54.572c0.154,0.09,0.249,0.255,0.249,0.433
		s-0.095,0.343-0.249,0.433l-93.92,54.58C1501.991,218.945,1501.904,218.968,1501.817,218.968z M1502.317,110.185v107.414
		l92.425-53.711L1502.317,110.185z"/>
	<path fill="#FFFFFF" d="M1595.237-0.13v54l-92.425-53.699l0.518-0.301h-1.895c-0.068,0.087-0.118,0.187-0.118,0.301
		c0,0.178,0.095,0.343,0.249,0.433l93.92,54.568c0.077,0.045,0.164,0.067,0.251,0.067c0.086,0,0.172-0.022,0.249-0.066
		c0.155-0.09,0.251-0.255,0.251-0.434V-0.13H1595.237z"/>
	<path fill="#FFFFFF" d="M1501.817,109.815c-0.086,0-0.172-0.022-0.249-0.066c-0.155-0.09-0.251-0.255-0.251-0.434V0.166
		c0-0.179,0.096-0.344,0.251-0.434c0.155-0.088,0.347-0.088,0.5,0.001l93.92,54.569c0.154,0.09,0.249,0.255,0.249,0.433
		s-0.095,0.343-0.249,0.433l-93.92,54.58C1501.991,109.793,1501.904,109.815,1501.817,109.815z M1502.317,1.035v107.411
		l92.425-53.711L1502.317,1.035z"/>
	<path fill="#FFFFFF" d="M1688.165-0.13l0.498,0.289l-92.426,53.713V-0.13h-1v54.871c0,0.179,0.096,0.344,0.251,0.434
		c0.077,0.044,0.163,0.066,0.249,0.066c0.087,0,0.174-0.022,0.251-0.067l93.921-54.582c0.154-0.09,0.249-0.255,0.249-0.433
		c0-0.108-0.044-0.204-0.106-0.289H1688.165z"/>
	<path fill="#FFFFFF" d="M1595.737,164.394c-0.086,0-0.172-0.022-0.249-0.066c-0.155-0.09-0.251-0.255-0.251-0.434V54.741
		c0-0.179,0.096-0.344,0.251-0.434c0.156-0.088,0.348-0.088,0.5,0.001l93.921,54.571c0.154,0.09,0.249,0.255,0.249,0.433
		s-0.095,0.343-0.249,0.433l-93.921,54.581C1595.911,164.371,1595.824,164.394,1595.737,164.394z M1596.237,55.61v107.414
		l92.426-53.712L1596.237,55.61z"/>
	<path fill="#FFFFFF" d="M1689.658,109.817c-0.087,0-0.174-0.022-0.251-0.067l-93.921-54.569c-0.154-0.09-0.249-0.255-0.249-0.433
		s0.095-0.343,0.249-0.433l93.921-54.582c0.153-0.089,0.345-0.09,0.5-0.001c0.155,0.09,0.251,0.255,0.251,0.434v109.151
		c0,0.179-0.096,0.344-0.251,0.434C1689.83,109.795,1689.744,109.817,1689.658,109.817z M1596.732,54.748l92.426,53.7V1.035
		L1596.732,54.748z"/>
	<path fill="#FFFFFF" d="M1595.737,273.546c-0.086,0-0.172-0.022-0.249-0.066c-0.155-0.09-0.251-0.255-0.251-0.434V163.894
		c0-0.179,0.096-0.344,0.251-0.434c0.156-0.088,0.348-0.088,0.5,0.001l93.921,54.57c0.154,0.09,0.249,0.255,0.249,0.433
		s-0.095,0.343-0.249,0.433l-93.921,54.582C1595.911,273.523,1595.824,273.546,1595.737,273.546z M1596.237,164.763v107.414
		l92.426-53.713L1596.237,164.763z"/>
	<path fill="#FFFFFF" d="M1689.658,218.97c-0.087,0-0.174-0.022-0.251-0.067l-93.921-54.569c-0.154-0.09-0.249-0.255-0.249-0.433
		s0.095-0.343,0.249-0.433l93.921-54.583c0.153-0.09,0.345-0.089,0.5-0.001c0.155,0.09,0.251,0.255,0.251,0.434V218.47
		c0,0.179-0.096,0.344-0.251,0.434C1689.83,218.947,1689.744,218.97,1689.658,218.97z M1596.732,163.9l92.426,53.7V110.187
		L1596.732,163.9z"/>
	<path fill="#FFFFFF" d="M1597.437,381.787l92.473-53.737c0.154-0.09,0.249-0.255,0.249-0.433s-0.095-0.343-0.249-0.433
		l-93.921-54.571c-0.152-0.089-0.344-0.089-0.5-0.001c-0.155,0.09-0.251,0.255-0.251,0.434v108.741H1597.437z M1596.237,273.915
		l92.426,53.702l-92.426,53.71V273.915z"/>
	<path fill="#FFFFFF" d="M1689.658,328.124c-0.087,0-0.174-0.022-0.251-0.067l-93.921-54.574c-0.154-0.09-0.249-0.255-0.249-0.433
		s0.095-0.343,0.249-0.433l93.921-54.58c0.153-0.089,0.345-0.09,0.5-0.001c0.155,0.09,0.251,0.255,0.251,0.434v109.154
		c0,0.179-0.096,0.344-0.251,0.434C1689.83,328.102,1689.744,328.124,1689.658,328.124z M1596.732,273.05l92.426,53.705V219.339
		L1596.732,273.05z"/>
</g>
</svg>
